<?xml version="1.0" encoding="UTF-8"?>
<svg id="_레이어_1" data-name="레이어 1" xmlns="http://www.w3.org/2000/svg" viewBox="0 0 397.63 69.29">
  <defs>
    <style>
      .cls-1 {
        fill: #D4A373;
      }
    </style>
  </defs>
  <path class="cls-1" d="M48.8,40.78h0c-3.33-2.36-8.77-4.52-16.18-6.45-5.57-1.49-9.6-2.83-11.97-3.98-2.29-1.08-4.25-2.72-5.81-4.86-1.5-2.03-2.26-4.44-2.26-7.14,0-.98,.25-2.16,.73-3.52l1.36-3.8-2.55,3.12c-2.38,2.91-3.58,5.93-3.58,8.99,0,2.76,.9,5.28,2.66,7.47,1.62,2.15,3.88,3.87,6.74,5.13,2.39,1.04,6.44,2.37,12.04,3.95,6.88,1.92,11.53,3.65,13.83,5.15,2.26,1.46,3.36,3.45,3.36,6.09s-1.16,4.62-3.54,6.45c-2.41,1.84-5.59,2.78-9.47,2.78s-7.33-.83-10.48-2.46c-.19-.1-.38-.2-.57-.31l3.34-5.87L0,60.41l26.49,8.89-2.58-4.53c.1,.02,.2,.03,.3,.05,3.78,.61,6.85,.92,9.14,.92,6.74,0,11.9-1.6,15.33-4.76,3.41-3.14,5.13-6.7,5.13-10.6s-1.69-7.23-5.01-9.6Z"/>
  <path class="cls-1" d="M71.18,8.89L44.7,0l2.47,4.34c-.11-.01-.22-.03-.32-.04-2.8-.32-5.36-.48-7.62-.48-7.37,0-13.16,1.2-17.22,3.57-4.17,2.51-6.28,6.03-6.28,10.46,0,3.87,1.41,6.77,4.19,8.63,2.66,1.74,8.16,3.77,16.8,6.21,5.56,1.56,9.62,3.04,12.06,4.4,2.35,1.31,4.36,3.09,5.97,5.3,1.5,2.15,2.27,4.65,2.27,7.43,0,2.94-.68,5.24-2.03,6.83l-3.12,3.68,4.02-2.65c4.15-2.73,6.26-6.56,6.26-11.38,0-3.15-.96-6.05-2.86-8.63-1.87-2.47-4.24-4.39-7.05-5.72-2.57-1.19-7.1-2.74-13.47-4.61-6.76-2-11.33-3.73-13.6-5.17-2.04-1.24-3.03-2.86-3.03-4.98,0-1.95,1.28-3.61,3.91-5.08,2.68-1.51,6.18-2.28,10.39-2.28s7.88,.61,11.08,1.82c.18,.07,.36,.14,.53,.21l-3.36,5.91,26.48-8.89Z"/>
  <polygon class="cls-1" points="84.17 3.99 74.22 3.99 93.35 37.18 97.87 27.69 84.17 3.99"/>
  <polygon class="cls-1" points="99.42 31.86 95.43 40.24 95.36 65.47 104.3 65.47 104.3 40.66 125.44 3.99 115.49 3.99 99.42 31.86"/>
  <polygon class="cls-1" points="152.61 3.99 130.05 65.47 139.42 65.47 148.65 40.5 148.74 40.5 151.29 33.53 151.54 32.6 151.54 32.6 156.35 19.37 161.13 32.6 155.02 32.6 152.14 40.5 164.01 40.5 173.07 65.47 182.4 65.47 160.13 3.99 152.61 3.99"/>
  <rect class="cls-1" x="194.07" y="3.99" width="8.96" height="61.48"/>
  <path class="cls-1" d="M207.47,3.99h-1.25V12.06h1.2c7.24,0,13,1.99,17.09,5.89,4.55,4.61,6.86,10.24,6.86,16.76s-2.31,12.21-6.85,16.75c-4.11,3.97-9.86,5.99-17.1,5.99h-1.2v8.03h1.25c10.16-.06,18.14-2.91,23.71-8.47,6.17-6.21,9.31-13.71,9.31-22.29s-3.07-15.91-9.14-22.04c-5.68-5.7-13.71-8.62-23.88-8.68Z"/>
  <path class="cls-1" d="M287.11,3.26l-.74-.05v7.97l.63,.06c5.27,.48,9.96,2.75,13.93,6.73,4.52,4.53,6.81,10.14,6.81,16.65s-2.29,12.2-6.81,16.72c-3.97,3.97-8.66,6.23-13.93,6.71l-.63,.06v7.97l.74-.05c7.91-.51,14.75-3.59,20.34-9.18,6.16-6.16,9.29-13.64,9.29-22.23s-3.12-15.99-9.29-22.16c-5.59-5.6-12.43-8.7-20.34-9.2Z"/>
  <path class="cls-1" d="M262.11,12.46c-6.16,6.18-9.29,13.64-9.29,22.16s3.12,16.07,9.29,22.23c5.6,5.6,12.44,8.69,20.34,9.19l.74,.05v-7.97l-.63-.06c-5.27-.48-9.95-2.74-13.93-6.71-4.52-4.52-6.82-10.14-6.82-16.72s2.29-12.12,6.82-16.65c3.97-3.99,8.66-6.25,13.93-6.73l.63-.06V3.21l-.74,.05c-7.9,.5-14.74,3.6-20.34,9.21Z"/>
  <polygon class="cls-1" points="388.55 3.99 376.46 49.07 364.92 24.41 358.99 24.41 347.53 49.06 335.4 3.99 326.28 3.99 342.78 65.47 350.35 65.47 361.97 40.17 373.56 65.47 381.13 65.47 397.63 3.99 388.55 3.99"/>
</svg>